<?xml version="1.0" encoding="UTF-8" standalone="no"?>
<!DOCTYPE svg PUBLIC "-//W3C//DTD SVG 1.1//EN"
 "http://www.w3.org/Graphics/SVG/1.1/DTD/svg11.dtd">
<!-- Generated by graphviz version 2.38.0 (20140413.2041)
 -->
<!-- Title: simple_hierarchy Pages: 1 -->
<svg width="1270pt" height="252pt"
 viewBox="0.00 0.00 1270.16 252.00" xmlns="http://www.w3.org/2000/svg" xmlns:xlink="http://www.w3.org/1999/xlink">
<g id="graph0" class="graph" transform="scale(1 1) rotate(0) translate(4 248)">
<title>simple_hierarchy</title>
<polygon fill="white" stroke="none" points="-4,4 -4,-248 1266.16,-248 1266.16,4 -4,4"/>
<g id="clust1" class="cluster"><title>cluster_clojure</title>
<polygon fill="none" stroke="blue" points="8,-8 8,-236 1254.16,-236 1254.16,-8 8,-8"/>
<text text-anchor="middle" x="631.078" y="-220.8" font-family="Times,serif" font-size="14.00">clojure</text>
</g>
<!-- push_util_test_helpers -->
<g id="node1" class="node"><title>push_util_test_helpers</title>
<ellipse fill="none" stroke="black" cx="99.7909" cy="-138" rx="83.5822" ry="18"/>
<text text-anchor="middle" x="99.7909" y="-133.8" font-family="Times,serif" font-size="14.00">push.util.test&#45;helpers</text>
</g>
<!-- midje_sweet -->
<g id="node2" class="node"><title>midje_sweet</title>
<ellipse fill="none" stroke="black" cx="302.375" cy="-111" rx="52.6853" ry="18"/>
<text text-anchor="middle" x="302.375" y="-106.8" font-family="Times,serif" font-size="14.00">midje.sweet</text>
</g>
<!-- push_util_test_helpers&#45;&gt;midje_sweet -->
<g id="edge1" class="edge"><title>push_util_test_helpers&#45;&gt;midje_sweet</title>
<path fill="none" stroke="black" d="M171.227,-128.519C194.721,-125.356 220.62,-121.87 243.087,-118.846"/>
<polygon fill="black" stroke="black" points="243.703,-122.295 253.147,-117.492 242.769,-115.357 243.703,-122.295"/>
</g>
<!-- push_interpreter_core -->
<g id="node8" class="node"><title>push_interpreter_core</title>
<ellipse fill="none" stroke="black" cx="302.375" cy="-165" rx="82.5873" ry="18"/>
<text text-anchor="middle" x="302.375" y="-160.8" font-family="Times,serif" font-size="14.00">push.interpreter.core</text>
</g>
<!-- push_util_test_helpers&#45;&gt;push_interpreter_core -->
<g id="edge12" class="edge"><title>push_util_test_helpers&#45;&gt;push_interpreter_core</title>
<path fill="none" stroke="black" d="M171.227,-147.481C187.4,-149.658 204.712,-151.988 221.259,-154.216"/>
<polygon fill="black" stroke="black" points="221.069,-157.722 231.447,-155.587 222.003,-150.784 221.069,-157.722"/>
</g>
<!-- push_types_base_integer -->
<g id="node3" class="node"><title>push_types_base_integer</title>
<ellipse fill="none" stroke="black" cx="516.99" cy="-165" rx="92.2593" ry="18"/>
<text text-anchor="middle" x="516.99" y="-160.8" font-family="Times,serif" font-size="14.00">push.types.base.integer</text>
</g>
<!-- push_instructions_dsl -->
<g id="node4" class="node"><title>push_instructions_dsl</title>
<ellipse fill="none" stroke="black" cx="1163.33" cy="-145" rx="82.6476" ry="18"/>
<text text-anchor="middle" x="1163.33" y="-140.8" font-family="Times,serif" font-size="14.00">push.instructions.dsl</text>
</g>
<!-- push_types_base_integer&#45;&gt;push_instructions_dsl -->
<g id="edge2" class="edge"><title>push_types_base_integer&#45;&gt;push_instructions_dsl</title>
<path fill="none" stroke="black" d="M601.295,-172.544C705.365,-180.491 888.721,-189.622 1044.51,-172 1063.42,-169.861 1083.73,-165.848 1102.06,-161.558"/>
<polygon fill="black" stroke="black" points="1103.12,-164.902 1112.02,-159.156 1101.48,-158.098 1103.12,-164.902"/>
</g>
<!-- push_instructions_core -->
<g id="node5" class="node"><title>push_instructions_core</title>
<ellipse fill="none" stroke="black" cx="956.789" cy="-145" rx="87.9412" ry="18"/>
<text text-anchor="middle" x="956.789" y="-140.8" font-family="Times,serif" font-size="14.00">push.instructions.core</text>
</g>
<!-- push_types_base_integer&#45;&gt;push_instructions_core -->
<g id="edge3" class="edge"><title>push_types_base_integer&#45;&gt;push_instructions_core</title>
<path fill="none" stroke="black" d="M607.113,-160.929C680.776,-157.563 785.128,-152.796 860.452,-149.355"/>
<polygon fill="black" stroke="black" points="861.052,-152.832 870.882,-148.879 860.732,-145.839 861.052,-152.832"/>
</g>
<!-- push_types_core -->
<g id="node6" class="node"><title>push_types_core</title>
<ellipse fill="none" stroke="black" cx="740.94" cy="-108" rx="65.239" ry="18"/>
<text text-anchor="middle" x="740.94" y="-103.8" font-family="Times,serif" font-size="14.00">push.types.core</text>
</g>
<!-- push_types_base_integer&#45;&gt;push_types_core -->
<g id="edge11" class="edge"><title>push_types_base_integer&#45;&gt;push_types_core</title>
<path fill="none" stroke="black" d="M573.71,-150.69C606.876,-142.173 648.882,-131.385 682.369,-122.785"/>
<polygon fill="black" stroke="black" points="683.654,-126.069 692.469,-120.191 681.913,-119.289 683.654,-126.069"/>
</g>
<!-- push_instructions_dsl&#45;&gt;push_interpreter_core -->
<g id="edge10" class="edge"><title>push_instructions_dsl&#45;&gt;push_interpreter_core</title>
<path fill="none" stroke="black" d="M1121.27,-160.546C1098.92,-168.238 1070.58,-176.765 1044.51,-181 962.917,-194.251 539.184,-205.352 421.168,-192 402.259,-189.861 381.962,-185.848 363.634,-181.558"/>
<polygon fill="black" stroke="black" points="364.218,-178.098 353.676,-179.156 362.577,-184.903 364.218,-178.098"/>
</g>
<!-- push_instructions_core&#45;&gt;push_instructions_dsl -->
<g id="edge15" class="edge"><title>push_instructions_core&#45;&gt;push_instructions_dsl</title>
<path fill="none" stroke="black" d="M1044.53,-145C1053.06,-145 1061.74,-145 1070.32,-145"/>
<polygon fill="black" stroke="black" points="1070.34,-148.5 1080.34,-145 1070.34,-141.5 1070.34,-148.5"/>
</g>
<!-- push_types_core&#45;&gt;push_instructions_dsl -->
<g id="edge6" class="edge"><title>push_types_core&#45;&gt;push_instructions_dsl</title>
<path fill="none" stroke="black" d="M805.978,-106.562C867.419,-106.019 962.68,-107.372 1044.51,-118 1063.12,-120.417 1083.11,-124.441 1101.24,-128.654"/>
<polygon fill="black" stroke="black" points="1100.56,-132.09 1111.1,-131.005 1102.19,-125.281 1100.56,-132.09"/>
</g>
<!-- push_types_core&#45;&gt;push_instructions_core -->
<g id="edge4" class="edge"><title>push_types_core&#45;&gt;push_instructions_core</title>
<path fill="none" stroke="black" d="M796.456,-117.432C821.585,-121.78 851.843,-127.015 879.21,-131.75"/>
<polygon fill="black" stroke="black" points="878.697,-135.214 889.147,-133.47 879.89,-128.316 878.697,-135.214"/>
</g>
<!-- push_types_base_boolean -->
<g id="node7" class="node"><title>push_types_base_boolean</title>
<ellipse fill="none" stroke="black" cx="516.99" cy="-89" rx="95.6425" ry="18"/>
<text text-anchor="middle" x="516.99" y="-84.8" font-family="Times,serif" font-size="14.00">push.types.base.boolean</text>
</g>
<!-- push_types_base_boolean&#45;&gt;push_instructions_dsl -->
<g id="edge5" class="edge"><title>push_types_base_boolean&#45;&gt;push_instructions_dsl</title>
<path fill="none" stroke="black" d="M603.609,-81.1333C708.858,-73.7687 892.24,-68.4618 1044.51,-103 1068.38,-108.415 1094.08,-117.206 1115.36,-125.349"/>
<polygon fill="black" stroke="black" points="1114.22,-128.66 1124.81,-129.031 1116.76,-122.138 1114.22,-128.66"/>
</g>
<!-- push_types_base_boolean&#45;&gt;push_instructions_core -->
<g id="edge9" class="edge"><title>push_types_base_boolean&#45;&gt;push_instructions_core</title>
<path fill="none" stroke="black" d="M555.217,-105.523C580.949,-116.082 616.274,-128.9 648.811,-135 719.184,-148.195 800.188,-150.299 861.31,-149.317"/>
<polygon fill="black" stroke="black" points="861.396,-152.816 871.327,-149.126 861.262,-145.817 861.396,-152.816"/>
</g>
<!-- push_types_base_boolean&#45;&gt;push_types_core -->
<g id="edge8" class="edge"><title>push_types_base_boolean&#45;&gt;push_types_core</title>
<path fill="none" stroke="black" d="M604.437,-96.4003C625.574,-98.2098 647.962,-100.126 668.319,-101.869"/>
<polygon fill="black" stroke="black" points="668.186,-105.37 678.448,-102.736 668.783,-98.3958 668.186,-105.37"/>
</g>
<!-- push_util_type_checkers -->
<g id="node9" class="node"><title>push_util_type_checkers</title>
<ellipse fill="none" stroke="black" cx="740.94" cy="-34" rx="92.2584" ry="18"/>
<text text-anchor="middle" x="740.94" y="-29.8" font-family="Times,serif" font-size="14.00">push.util.type&#45;checkers</text>
</g>
<!-- push_types_base_boolean&#45;&gt;push_util_type_checkers -->
<g id="edge13" class="edge"><title>push_types_base_boolean&#45;&gt;push_util_type_checkers</title>
<path fill="none" stroke="black" d="M575.725,-74.693C605.627,-67.2831 642.288,-58.1985 673.378,-50.4941"/>
<polygon fill="black" stroke="black" points="674.397,-53.8477 683.261,-48.0451 672.713,-47.0532 674.397,-53.8477"/>
</g>
<!-- push_interpreter_core&#45;&gt;push_types_base_integer -->
<g id="edge7" class="edge"><title>push_interpreter_core&#45;&gt;push_types_base_integer</title>
<path fill="none" stroke="black" d="M385.273,-165C394.824,-165 404.652,-165 414.427,-165"/>
<polygon fill="black" stroke="black" points="414.58,-168.5 424.58,-165 414.579,-161.5 414.58,-168.5"/>
</g>
<!-- push_interpreter_core&#45;&gt;push_util_type_checkers -->
<g id="edge14" class="edge"><title>push_interpreter_core&#45;&gt;push_util_type_checkers</title>
<path fill="none" stroke="black" d="M361.55,-152.381C370.11,-148.734 378.332,-144.04 385.168,-138 413.178,-113.253 390.491,-83.3505 421.168,-62 491.685,-12.9228 593.33,-12.9212 662.763,-20.6129"/>
<polygon fill="black" stroke="black" points="662.423,-24.097 672.766,-21.7986 663.247,-17.1457 662.423,-24.097"/>
</g>
</g>
</svg>
